HIERARCHY
ROOT Hips
{
	OFFSET 0.00000 0.00000 0.00000
	CHANNELS 6 Xposition Yposition Zposition Zrotation Yrotation Xrotation 
	JOINT LHipJoint
	{
		OFFSET 0 0 0
		CHANNELS 3 Zrotation Yrotation Xrotation
		JOINT LeftHip
		{
			OFFSET 1.57338 -1.94743 0.52196
			CHANNELS 3 Zrotation Yrotation Xrotation
			JOINT LeftKnee
			{
				OFFSET 2.60333 -7.15259 0.00000
				CHANNELS 3 Zrotation Yrotation Xrotation
				JOINT LeftAnkle
				{
					OFFSET 2.77855 -7.63400 0.00000
					CHANNELS 3 Zrotation Yrotation Xrotation
					JOINT LeftToe
					{
						OFFSET 0.19847 -0.54529 2.28466
						CHANNELS 3 Zrotation Yrotation Xrotation
						End Site
						{
							OFFSET 0.00000 -0.00000 1.17993
						}
					}
				}
			}
		}
	}
	JOINT RHipJoint
	{
		OFFSET 0 0 0
		CHANNELS 3 Zrotation Yrotation Xrotation
		JOINT RightHip
		{
			OFFSET -1.61527 -1.94743 0.52196
			CHANNELS 3 Zrotation Yrotation Xrotation
			JOINT RightKnee
			{
				OFFSET -2.53829 -6.97390 0.00000
				CHANNELS 3 Zrotation Yrotation Xrotation
				JOINT RightAnkle
				{
					OFFSET -2.80762 -7.71387 0.00000
					CHANNELS 3 Zrotation Yrotation Xrotation
					JOINT RightToe
					{
						OFFSET -0.30536 -0.83898 2.28801
						CHANNELS 3 Zrotation Yrotation Xrotation
						End Site
						{
							OFFSET -0.00000 -0.00000 1.21323
						}
					}
				}
			}
		}
	}
	JOINT lowerback
	{
		OFFSET 0 0 0
		CHANNELS 3 Zrotation Yrotation Xrotation
		JOINT Chest
		{
			OFFSET -0.04381 1.99497 -0.19778
			CHANNELS 3 Zrotation Yrotation Xrotation
			JOINT Chest2
			{
				OFFSET -0.01959 2.01295 -0.04372
				CHANNELS 3 Zrotation Yrotation Xrotation
				JOINT lowerneck
				{
					OFFSET 0 0 0
					CHANNELS 3 Zrotation Yrotation Xrotation
					JOINT Neck
					{
						OFFSET -0.05459 1.76913 0.09708
						CHANNELS 3 Zrotation Yrotation Xrotation
						JOINT Head
						{
							OFFSET 0.09461 1.77368 -0.11172
							CHANNELS 3 Zrotation Yrotation Xrotation
							End Site
							{
								OFFSET 0.03812 1.78157 -0.04834
							}
						}
					}
				}
				JOINT LeftCollar
				{
					OFFSET 0 0 0
					CHANNELS 3 Zrotation Yrotation Xrotation
					JOINT LeftShoulder
					{
						OFFSET 3.50922 1.24034 -0.28866
CHANNELS 3 Zrotation Xrotation Yrotation
						JOINT LeftElbow
						{
OFFSET 0 -5.401880 0.000000
CHANNELS 3 Zrotation Xrotation Yrotation
							JOINT LeftWrist
							{
OFFSET 0 -3.685590 0.000000
CHANNELS 3 Zrotation Xrotation Yrotation
								JOINT lhand
								{
									OFFSET 0 0 0
CHANNELS 3 Zrotation Xrotation Yrotation
									JOINT LFingers
									{
OFFSET 0 -0.617530 0.000000
CHANNELS 3 Zrotation Xrotation Yrotation
										End Site
										{
OFFSET 0 -0.497870 0.000000
										}
									}
								}
								JOINT LThumb
								{
OFFSET 0 0.000000 0.000000
CHANNELS 3 Zrotation Xrotation Yrotation
									End Site
									{
OFFSET 0 -0.505470 0.505470
									}
								}
							}
						}
					}
				}
				JOINT RightCollar
				{
					OFFSET 0 0 0
					CHANNELS 3 Zrotation Yrotation Xrotation
					JOINT RightShoulder
					{
						OFFSET -2.95373 1.39649 -0.27346
CHANNELS 3 Zrotation Xrotation Yrotation
						JOINT RightElbow
						{
OFFSET 0 -6.106700 -0.000000
CHANNELS 3 Zrotation Xrotation Yrotation
							JOINT RightWrist
							{
OFFSET 0 -3.630520 0.000000
CHANNELS 3 Zrotation Xrotation Yrotation
								JOINT rhand
								{
									OFFSET 0 0 0
CHANNELS 3 Zrotation Xrotation Yrotation
									JOINT RFingers
									{
OFFSET 0 -0.583850 0.000000
CHANNELS 3 Zrotation Xrotation Yrotation
										End Site
										{
OFFSET 0 -0.470710 0.000000
										}
									}
								}
								JOINT RThumb
								{
OFFSET 0 0.000000 0.000000
CHANNELS 3 Zrotation Xrotation Yrotation
									End Site
									{
OFFSET 0 -0.477900 0.477900
									}
								}
							}
						}
					}
				}
			}
		}
	}
}
MOTION
Frames: 4
Frame Time: 0.008333333333333333
1.014000 18.776100 -0.148600 7.127000 -60.387600 1.096600 0.000000 0.000000 0.000000 -21.677000 3.987500 -2.850600 0.664800 5.214600 14.521700 0.044700 19.297700 -27.643700 0.092000 -1.956500 -5.385300 0.000000 0.000000 0.000000 5.289800 30.917500 -15.002100 -1.387600 -7.453200 21.065100 1.719700 -26.171300 -24.629100 -0.259100 -3.275000 9.045200 1.759500 -1.793900 6.716200 2.651900 -2.292400 2.661400 1.912200 -1.172000 -0.977400 -6.967400 -1.428300 -9.912800 3.946200 -2.222900 28.017200 2.322100 -1.472900 10.739400 0.000000 -0.000000 0.000000 11.961300 -15.320800 -24.315300 9.616900 -16.138000 1.366500 40.276500 43.284900 -15.977000 0.000000 0.000000 0.000000 -7.125000 0.000000 0.000000 12.646600 50.122300 -1.619500 0.000000 -0.000000 0.000000 -16.245800 1.500800 38.702800 -142.462200 -46.541600 -103.370700 -37.427500 -55.721500 5.396700 0.000000 0.000000 0.000000 7.125000 0.000000 -0.000000 -9.064600 36.631900 -1.884600
0.537812 18.845352 -0.167695 8.292324 -61.827909 -0.250943 0.000000 0.000000 0.000000 -21.032139 5.473370 -2.407278 0.821399 5.782448 16.154461 -0.633904 20.597364 -23.797209 0.575315 -4.856971 -13.501185 0.000000 0.000000 0.000000 6.748221 29.987571 -13.840172 -1.414436 -7.521852 21.270985 1.484417 -24.623158 -23.358809 -0.172332 -2.673482 7.370910 2.295971 -1.998203 5.897928 3.029571 -2.566716 2.640614 1.988765 -1.309184 -0.544122 -5.857017 -0.988651 -10.177025 3.550066 -1.783558 28.841406 2.046869 -1.225998 11.057238 0.000000 0.000000 0.000000 12.957776 -14.442166 -27.996269 10.882815 -18.108266 1.739411 39.469837 39.451585 -15.794267 0.000000 0.000000 0.000000 -7.125000 0.000000 0.000000 11.789444 49.736958 -1.399934 0.000000 0.000000 0.000000 -16.059623 2.000587 37.380577 -142.571835 -46.470133 -103.450251 -35.586140 -58.128824 3.742913 0.000000 0.000000 0.000000 7.125000 0.000000 0.000000 -7.394303 34.505119 -1.918099
0.046942 18.915045 -0.224663 10.116376 -63.107567 -2.508781 0.000000 0.000000 0.000000 -20.104704 6.235356 -2.209994 1.129013 6.748039 18.971358 -0.485143 19.276885 -22.958076 0.453384 -4.305602 -11.940224 0.000000 0.000000 0.000000 8.031347 29.054333 -12.263038 -1.472758 -7.668501 21.711748 0.986352 -22.182040 -23.265071 -0.147709 -2.476625 6.824874 2.692858 -2.152593 5.629791 3.038813 -2.769078 2.688398 1.776639 -1.407548 -0.359865 -5.498735 -0.822859 -10.416916 4.020053 -1.813272 29.424136 2.159783 -1.162354 11.327662 0.000000 0.000000 0.000000 13.895780 -13.418537 -29.805037 12.243739 -20.168874 2.185802 39.102929 38.028447 -16.101497 0.000000 0.000000 0.000000 -7.125000 0.000000 0.000000 11.422514 50.036990 -1.435210 0.000000 0.000000 0.000000 -15.711802 3.060381 36.973579 -142.479978 -46.529975 -103.383638 -34.713102 -58.655949 2.653538 0.000000 0.000000 0.000000 7.125000 0.000000 0.000000 -6.604681 33.155297 -1.928269
-0.423290 18.924429 -0.291074 11.738114 -64.319028 -4.803867 0.000000 0.000000 0.000000 -18.953950 7.823819 -4.271823 1.973391 8.809275 25.201267 -0.853072 18.823261 -17.519778 0.704351 -5.361751 -14.943741 0.000000 0.000000 0.000000 9.439401 27.376649 -11.144250 -1.590407 -7.955022 22.577646 0.621764 -19.872942 -22.608862 -0.057773 -1.550899 4.265959 3.340979 -2.504750 5.571556 2.730806 -3.227322 2.988078 1.115490 -1.626420 -0.065544 -5.660092 -0.635075 -10.555440 5.435792 -1.922644 29.193344 2.693666 -1.063035 11.280697 0.000000 0.000000 0.000000 14.804659 -12.586513 -28.017807 13.369512 -21.826246 2.589117 41.559611 37.476942 -17.011302 0.000000 0.000000 0.000000 -7.125000 0.000000 0.000000 14.130781 51.671696 -2.361182 0.000000 0.000000 0.000000 -15.661622 3.196135 38.762023 -142.352685 -46.612628 -103.291144 -37.445367 -56.588042 2.772122 0.000000 0.000000 0.000000 7.125000 0.000000 0.000000 -8.838891 33.375159 -2.543403
